<?xml version="1.0" encoding="UTF-8" standalone="no"?>
<!DOCTYPE svg PUBLIC "-//W3C//DTD SVG 1.1//EN"
"http://www.w3.org/Graphics/SVG/1.1/DTD/svg11.dtd">


<svg x="0" y="0" width="909" height="214" viewBox="0 0 909 214" version="1.1" xmlns="http://www.w3.org/2000/svg" xmlns:xlink="http://www.w3.org/1999/xlink"
style="display: block;margin-left: auto;margin-right: auto;">
<defs>
<clipPath id="c0_1"><path d="M0,214.4L0,0L909.4,0l0,214.4Z" /></clipPath>

<style type="text/css"><![CDATA[

.g1_1{
fill: #050604;
}


]]></style>

</defs>
<g clip-path="url(#c0_1)">
<path d="M459.2,-856.7c0,0,-5.2,-0.3,-11.3,0.6c-6.1,0.9,-13.2,3,-17,5.6c-1.9,1.3,-8.1,4.6,-14.2,13.1c-5,6.9,-9.4,15,-11,19.4c-1.4,4.3,-3.8,14.8,-4.5,22.9c-0.9,9,0,17,0,17c0,0,-2.9,-5.3,-7.9,-3.4c-4.8,1.8,1.6,28.9,5.5,32.2c3,2.6,5.4,1.8,5.4,1.8c0,0,4,20.8,8,27.5c2.4,3.9,14.2,13,14.2,13c0,0,0.5,6.1,0,12.2c-0.6,6.7,-7,18.9,-10.7,24.5c-2.8,4.1,-9.9,11.5,-14.2,14.1c-8.8,5.5,-27,10.5,-37.3,12.2c-7.3,1.2,-22.2,0.2,-29.2,2.4c-5.8,1.9,-15.5,6.2,-21.2,12.9c-9.9,11.8,-14.8,29,-17.3,38.6c-9.1,34.9,-1.6,108.3,-4.6,144.3c-0.9,11.1,-5.4,33.1,-9.1,43.6c-2.9,7.9,-14,22.6,-18,32.1c-11.7,27.7,-8.3,88.7,-16.6,117.6c-2.8,9.6,-15.2,19.9,-23.1,32.7c-16.2,26,-35.4,53.9,-28.5,60.9c4.3,4.3,27.4,-27.3,24.3,-23.3c0,0,-17.1,63.4,-11.5,67.2c4.5,3.1,22.9,-43.3,22.9,-43.3c0,0,-8,59.5,0,59.5c8.4,0,16.6,-56.2,16.6,-56.2c0,0,-0.4,53.8,6.5,53.8c9.1,0,9.4,-52,9.4,-52c0,0,6.3,47.3,11.8,41.8c4.3,-4.2,0.4,-43.8,1.2,-57.2c1,-15.4,3.2,-34,3.2,-42.6c0,-9.3,-1.9,-18.5,1.2,-26.5c10.4,-26.3,42.3,-68.5,49.4,-95.8c6.4,-24.2,1.4,-65.4,9.8,-85.3c2.6,-6.4,14.5,-48.2,14.5,-48.2c0,0,9.6,117.5,5.5,156.4c-2.7,26.1,-21.4,75.7,-25.2,101.6c-3.8,26.3,-2.9,79.8,0,106.2c3.3,29.9,16.8,88.6,20.7,118.3c2.2,17.7,1.4,53.5,4.5,71.1c0.9,4.9,2.8,20.1,2.8,20.1c0,0,-11.6,29,-12.3,41.2c-1.7,30.1,8.8,72.3,8.8,72.3c0,0,28,77.7,32.1,104.2c2,13.4,2.6,39.6,0,52.4c-2.3,11,-20.9,32.4,-15.3,42.1c6.1,10.5,55.7,12.4,72.5,10.5c7.5,-0.9,0,-28.9,0,-28.9l-6.8,-29c0,0,-9.4,-34.7,-10.7,-46.6c-4.1,-36.2,0,-145.9,0,-145.9L437,77.2c0,0,10.6,-150.6,16.9,-200.6c0.4,-3.7,1.6,-17.7,2.7,-23.2c1.3,-6.6,0.2,-5.4,2.6,-9.1Z" class="g1_1" />
<path d="M457.1,-856.7c0,0,5.2,-0.3,11.3,0.6c6.1,0.9,13.2,3,17,5.6c1.9,1.3,8.1,4.6,14.3,13.1c4.9,6.9,9.4,15,10.9,19.4c1.5,4.3,3.8,14.8,4.6,22.9c0.8,9,0,17.1,0,17.1c0,0,3.2,-4.8,7.8,-3.5c5,1.4,-1.5,28.9,-5.4,32.2c-3.1,2.6,-5.8,1.3,-5.8,1.3c0,0,-3.7,21.3,-7.7,28c-2.4,3.9,-14.2,13,-14.2,13c0,0,-0.5,6.1,0,12.2c0.6,6.7,7,19,10.7,24.5c2.9,4.1,9.9,11.5,14.2,14.1c8.8,5.5,27,10.5,37.3,12.2c7.3,1.2,22.2,0.2,29.3,2.4c5.7,1.9,15.4,6.2,21.1,12.9c9.9,11.8,14.8,29,17.3,38.6c9.1,34.9,1.6,108.4,4.6,144.3c0.9,11.1,5.4,33.1,9.2,43.6c2.8,7.9,14,22.7,17.9,32.1c11.7,27.7,8.3,88.7,16.6,117.6c2.8,9.6,15.2,20,23.1,32.7c16.2,26,35.5,53.9,28.5,60.9c-4.3,4.3,-27.4,-27.3,-24.3,-23.3c0,0,17.1,63.4,11.5,67.2c-4.5,3.1,-22.9,-43.3,-22.9,-43.3c0,0,8,59.5,0,59.5c-8.4,0,-16.5,-56.2,-16.5,-56.2c0,0,0.3,53.9,-6.5,53.9c-9.2,0,-9.5,-52.1,-9.5,-52.1c0,0,-6.3,47.3,-11.8,41.8c-4.3,-4.2,-0.3,-43.8,-1.2,-57.2c-1,-15.4,-3.2,-33.9,-3.2,-42.6c0,-9.3,1.9,-18.5,-1.2,-26.5c-10.4,-26.3,-42.3,-68.5,-49.4,-95.8c-6.4,-24.2,-1.4,-65.4,-9.8,-85.3c-2.6,-6.4,-14.5,-48.2,-14.5,-48.2c0,0,-9.6,117.5,-5.5,156.5c2.7,26,21.4,75.7,25.2,101.6c3.8,26.2,2.9,79.7,0,106.1c-3.3,29.9,-16.8,88.6,-20.6,118.3c-2.3,17.7,-1.5,53.6,-4.6,71.1c-0.9,4.9,-2.8,20.1,-2.8,20.1c0,0,11.6,29,12.3,41.2c1.7,30.1,-8.8,72.4,-8.8,72.4c0,0,-28,77.6,-32,104.1c-2.1,13.4,-2.7,39.6,0,52.5c2.2,10.9,20.8,32.3,15.2,42c-6.1,10.5,-55.7,12.4,-72.5,10.5c-7.5,-0.9,0,-28.9,0,-28.9l6.8,-29c0,0,9.4,-34.7,10.7,-46.6c4.1,-36.2,0,-145.9,0,-145.9L479.3,77.2c0,0,-10.6,-150.6,-16.9,-200.6c-0.4,-3.7,-1.6,-17.7,-2.7,-23.2c-1.3,-6.6,0,-4.8,-2.6,-9.1Z" class="g1_1" />
</g>

</svg>
