<?xml version="1.0" encoding="UTF-8" standalone="no"?>
<!DOCTYPE svg PUBLIC "-//W3C//DTD SVG 1.1//EN"
"http://www.w3.org/Graphics/SVG/1.1/DTD/svg11.dtd">


<!-- Page 1 -->
<svg x="0" y="0" width="909" height="214" viewBox="0 0 909 214" version="1.1" xmlns="http://www.w3.org/2000/svg" xmlns:xlink="http://www.w3.org/1999/xlink"
style="display: block;margin-left: auto;margin-right: auto;">
<defs>
<clipPath id="c0_1"><path d="M0,214.4L0,0L909.4,0l0,214.4Z" /></clipPath>

<style type="text/css"><![CDATA[

.g1_1{
fill: #050604;
}


]]></style>

</defs>
<g clip-path="url(#c0_1)">
<path d="M459.2,-642.1c0,0,-5.2,-0.2,-11.3,0.7c-6.1,0.9,-13.2,2.9,-17,5.6c-1.9,1.3,-8.1,4.6,-14.2,13.1c-5,6.8,-9.4,14.9,-11,19.3c-1.4,4.3,-3.8,14.9,-4.5,22.9c-0.9,9,0,17.1,0,17.1c0,0,-2.9,-5.3,-7.9,-3.4c-4.8,1.8,1.6,28.8,5.5,32.1c3,2.6,5.4,1.9,5.4,1.9c0,0,4,20.8,8,27.5c2.4,3.9,14.2,12.9,14.2,12.9c0,0,0.5,6.2,0,12.3c-0.6,6.6,-7,18.9,-10.7,24.4c-2.8,4.1,-9.9,11.5,-14.2,14.1c-8.8,5.5,-27,10.6,-37.3,12.3c-7.3,1.2,-22.2,0.1,-29.2,2.4c-5.8,1.8,-15.5,6.1,-21.2,12.8c-9.9,11.8,-14.8,29,-17.3,38.6c-9.1,35,-1.6,108.4,-4.6,144.4c-0.9,11.1,-5.4,33.1,-9.1,43.5c-2.9,8,-14,22.7,-18,32.1c-11.7,27.8,-8.3,88.7,-16.6,117.7c-2.8,9.5,-15.2,19.9,-23.1,32.6c-16.2,26,-35.4,53.9,-28.5,60.8c4.3,4.3,27.4,-27.2,24.3,-23.3c0,0,-17.1,63.4,-11.5,67.3c4.5,3,22.9,-43.4,22.9,-43.4c0,0,-8,59.6,0,59.6c8.4,0,16.6,-56.3,16.6,-56.3c0,0,-0.4,53.9,6.5,53.9c9.1,0,9.4,-52,9.4,-52c0,0,6.3,47.3,11.8,41.8c4.3,-4.3,0.4,-43.9,1.2,-57.3C278.8,30.5,281,12,281,3.3c0,-9.2,-1.9,-18.4,1.2,-26.4c10.4,-26.2,42.3,-68.4,49.4,-95.7c6.4,-24.3,1.4,-65.4,9.8,-85.4c2.6,-6.3,14.5,-48.1,14.5,-48.1c0,0,9.6,117.5,5.5,156.4c-2.7,26,-21.4,75.7,-25.2,101.5c-3.8,26.3,-2.9,79.8,0,106.2c3.3,29.8,16.8,88.6,20.7,118.4c2.2,17.6,1.4,53.5,4.5,71c0.9,5,2.8,20.1,2.8,20.1c0,0,-11.6,29.1,-12.3,41.3c-1.7,30.1,8.8,72.3,8.8,72.3c0,0,28,77.6,32.1,104.1c2,13.4,2.6,39.6,0,52.5c-2.3,11,-20.9,32.3,-15.3,42C383.6,644,433.2,646,450,644c7.5,-0.8,0,-28.8,0,-28.8l-6.8,-29c0,0,-9.4,-34.8,-10.7,-46.6c-4.1,-36.3,0,-145.9,0,-145.9L437,291.8c0,0,10.6,-150.7,16.9,-200.6c0.4,-3.7,1.6,-17.7,2.7,-23.2c1.3,-6.6,0.2,-5.4,2.6,-9.1Z" class="g1_1" />
<path d="M457.1,-642.1c0,0,5.2,-0.2,11.3,0.7c6.1,0.9,13.2,3,17,5.6c1.9,1.3,8.1,4.6,14.3,13.1c4.9,6.8,9.4,14.9,10.9,19.3c1.5,4.3,3.8,14.9,4.6,22.9c0.8,9,0,17.1,0,17.1c0,0,3.2,-4.8,7.8,-3.4c5,1.4,-1.5,28.8,-5.4,32.2c-3.1,2.5,-5.8,1.3,-5.8,1.3c0,0,-3.7,21.3,-7.7,28c-2.4,3.9,-14.2,12.9,-14.2,12.9c0,0,-0.5,6.2,0,12.3c0.6,6.6,7,18.9,10.7,24.4c2.9,4.1,9.9,11.5,14.2,14.1c8.8,5.5,27,10.6,37.3,12.3c7.3,1.2,22.2,0.1,29.3,2.4c5.7,1.8,15.4,6.1,21.1,12.8c9.9,11.8,14.8,29,17.3,38.6c9.1,35,1.6,108.4,4.6,144.4c0.9,11.1,5.4,33.1,9.2,43.5c2.8,8,14,22.7,17.9,32.1c11.7,27.8,8.3,88.7,16.6,117.7c2.8,9.5,15.2,19.9,23.1,32.6c16.2,26,35.5,53.9,28.5,60.8C715.4,59.9,692.3,28.4,695.4,32.3c0,0,17.1,63.4,11.5,67.3C702.4,102.6,684,56.2,684,56.2c0,0,8,59.6,0,59.6c-8.4,0,-16.5,-56.2,-16.5,-56.2c0,0,0.3,53.8,-6.5,53.8c-9.2,0,-9.5,-52,-9.5,-52c0,0,-6.3,47.3,-11.8,41.8C635.4,99,639.4,59.3,638.5,45.9C637.5,30.5,635.3,12,635.3,3.3c0,-9.2,1.9,-18.4,-1.2,-26.4c-10.4,-26.2,-42.3,-68.4,-49.4,-95.7c-6.4,-24.3,-1.4,-65.4,-9.8,-85.4c-2.6,-6.3,-14.5,-48.1,-14.5,-48.1c0,0,-9.6,117.5,-5.5,156.4c2.7,26,21.4,75.7,25.2,101.5c3.8,26.3,2.9,79.8,0,106.2c-3.3,29.8,-16.8,88.6,-20.6,118.4c-2.3,17.6,-1.5,53.5,-4.6,71c-0.9,5,-2.8,20.1,-2.8,20.1c0,0,11.6,29.1,12.3,41.3c1.7,30.1,-8.8,72.3,-8.8,72.3c0,0,-28,77.6,-32,104.2c-2.1,13.4,-2.7,39.6,0,52.4c2.2,11,20.8,32.4,15.2,42C532.7,644,483.1,646,466.3,644c-7.5,-0.8,0,-28.8,0,-28.8l6.8,-29c0,0,9.4,-34.8,10.7,-46.6c4.1,-36.3,0,-145.9,0,-145.9L479.3,291.8c0,0,-10.6,-150.7,-16.9,-200.6C462,87.5,460.8,73.5,459.7,68c-1.3,-6.6,0,-4.8,-2.6,-9.1Z" class="g1_1" />
</g>

</svg>
